<svg xmlns="http://www.w3.org/2000/svg" viewBox="0 0 1000 1000"><polygon points="560 406.2 783.07 250 774.97 255.67 560 406.2" fill="none"/><polygon points="560 750 808.11 750 560 576.28 560 750" fill="#243165"/><polygon points="218.02 750 440 750 440 594.57 218.02 750" fill="#243165"/><polygon points="774.97 255.67 783.07 250 560 250 560 406.2 774.97 255.67" fill="#243165"/><polygon points="100 328.62 100 440 288.64 440 100 328.62" fill="#243165"/><polygon points="100 560 100 686.15 280.16 560 100 560" fill="#243165"/><polygon points="440 250 202.88 250 440 390 440 250" fill="#243165"/><polygon points="900 667.85 900 560 745.97 560 900 667.85" fill="#243165"/><polygon points="900 440 900 314.62 720.94 440 900 440" fill="#243165"/><path d="M900,314.62,720.94,440H900v20H540V250h20V406.2L783.07,250h48.27L560,440h69.74l231.8-162.31,32-22.41A19.9329,19.9329,0,0,1,900,270Z" fill="#fff"/><path d="M460,540V750H440V594.57L218.02,750H169.74L440,560.76V560H371.35L138.7,722.9l-31.76,22.24A19.933,19.933,0,0,1,100,730V686.15L280.16,560H100V540Z" fill="#fff"/><path d="M460,250V460H100V440H288.64L100,328.62V296.45L343.12,440h78.67L139.7,273.44l-32.22-19.03A19.87292,19.87292,0,0,1,120,250h82.88L440,390V250Z" fill="#fff"/><path d="M900,560H745.97L900,667.85v33.81L697.7,560H627.96l233.2,163.29,31.58,22.12A19.88336,19.88336,0,0,1,880,750H808.11L560,576.28V750H540V540H900Z" fill="#fff"/><polygon points="540 460 540 440 540 250 460 250 460 440 460 460 440 460 100 460 100 540 440 540 460 540 460 560 460 750 540 750 540 560 540 540 560 540 900 540 900 460 560 460 540 460" fill="#e84b3c"/><path d="M440,560v.76L169.74,750H120a19.89164,19.89164,0,0,1-13.06-4.86L138.7,722.9,371.35,560Z" fill="#e94a3c"/><path d="M893.54,255.28l-32,22.41L629.74,440H560L831.34,250H880A19.94025,19.94025,0,0,1,893.54,255.28Z" fill="#e94a3c"/><path d="M900,701.66V730a19.90438,19.90438,0,0,1-7.26,15.41l-31.58-22.12L627.96,560H697.7Z" fill="#e94a3c"/><path d="M421.79,440H343.12L100,296.45V270a19.93687,19.93687,0,0,1,7.48-15.59l32.22,19.03Z" fill="#e94a3c"/></svg>