<svg xmlns="http://www.w3.org/2000/svg" version="1.1" viewBox="0 0 54.4 20.8"><g stroke-width=".1"><path fill="#000" d="M16.9 54.2c-2-.4-4.3-2.7-5.3-5.5-.6-1.6-.8-4-.5-5 .4-.9 1.1-1.2 1.5-.5l.1 1.5c.2 2.6.7 4.3 2 5.8 1.9 2.3 3.8 2.3 5.5 0a8.4 8.4 0 0 0 1.7-6.2 9 9 0 0 1 0-1.5l.2-.5c.3-.2.3-.3.6-.2l.5.2c.6.5.9 2.8.6 4.8a8.2 8.2 0 0 1-.8 2.6c-1.1 2.5-2.8 4.1-4.7 4.4a3 3 0 0 1-1.4 0zM-9 54.5c-1-.2-1.9-.5-2.8-1.3a9.2 9.2 0 0 1-2.9-5.5 13 13 0 0 1 .4-4.6c.1-.6.7-.9 1-.5.2.2.3.5.1 1.5-.2 1.4.2 3.7.9 5 1 2.3 2.8 3.5 4.4 3.2.9-.2 1.4-.5 2.2-1.3.5-.5.8-.8 1-1.4.7-1.4 1-2.5 1.2-4.4.2-1 .6-1.6 1.3-1.5.2 0 .7.5.8.9.4 1.3-.5 5-1.8 6.9-.8 1.2-2 2.2-3.3 2.7l-2 .4H-9zM1.8 59c-1.2-.4-2.1-1.7-2.5-3.3v-1.4c0-.7 0-.8.2-1 .3-.4.8-.3 1 .2v.7c0 1 .5 2.2 1.1 2.8.7.7 1 .6 1.5-.3l.6-.8c.3-.3.4-.3.7-.3H5l.6.7.9.7c.2 0 .7-.6 1-1.2l.5-2c.1-.6.2-.9.6-1 .4-.1.7 0 1 .4.2.4.2 1 0 2-.3 1.2-.7 2-1.4 2.8-.6.5-1 .7-1.7.7s-1-.2-1.5-.7l-.4-.3-.3.4c-.6.8-1.5 1.1-2.4.9z" transform="translate(22.8 -42)"/><path fill="#ff6187" fill-opacity="1" d="M24 62.7a4.8 4.8 0 0 1-3.3-3.3 4 4 0 0 1-.2-1.6c0-1.8.7-3.3 2.1-4.4.6-.5 1.2-.7 2.3-1.1 2-.7 3.5-.5 5 1 .8.7 1.2 1.4 1.5 2.4.2.6.2.8.2 1.7 0 1.2-.2 1.7-.8 2.7a5.4 5.4 0 0 1-3.3 2.4c-.9.3-2.7.4-3.5.2zM-18.9 62.8c-2-.5-3.3-1.7-3.8-3.5-.2-.8-.2-1.4 0-2.2a5.7 5.7 0 0 1 3.7-4.3c.6-.3.8-.3 2.1-.3 1.6 0 1.8 0 2.4.7l.7.5c.6.2 1.6 1.3 1.9 1.9 1 1.9.6 4-1.1 5.6-1.2 1.2-2.3 1.6-4.2 1.7l-1.7-.1z" transform="translate(22.8 -42)"/></g></svg>