<svg xmlns="http://www.w3.org/2000/svg" width="24" height="24" viewBox="0 0 128 128" fill="none" stroke="currentColor" stroke-width="8" stroke-linecap="round" stroke-linejoin="round">
    <path d="M55 97c-.8 0-1.6-.2-2.4-.5L8.7 77.2c-3-1.3-4.4-4.9-3.1-7.9 1.3-3 4.9-4.4 7.9-3.1l43.9 19.2c3 1.3 4.4 4.9 3.1 7.9-1 2.4-3.2 3.7-5.5 3.7z" />
    <path d="M73 91c0-9.9-8.1-18-18-18l-1.1.1L72 50v-1c0-13.8 11.2-25 25-25s25 11.2 25 25-11.2 25-25 25h-1c-7.2 5.7-16.2 12.8-23.1 18.2-.5 9.3-8.3 16.8-17.9 16.8-5.6 0-10.6-2.5-13.9-6.5" />
    <path d="M55 97c-.8 0-1.6-.2-2.4-.5L8.7 77.2c-3-1.3-4.4-4.9-3.1-7.9 1.3-3 4.9-4.4 7.9-3.1l43.9 19.2c3 1.3 4.4 4.9 3.1 7.9-1 2.4-3.2 3.7-5.5 3.7z" />
    <circle cx="97" cy="49" fill="none" r="14" />
</svg>